<svg viewBox="0 0 105.073 105.072" xmlns="http://www.w3.org/2000/svg" xmlns:xlink="http://www.w3.org/1999/xlink" width="105.072754" height="105.072266" fill="none" customFrame="#000000">
	<defs>
		<clipPath id="clipPath_1">
			<rect width="105.072693" height="105.072693" x="0.000000" y="0.000000" fill="rgb(255,255,255)" />
		</clipPath>
	</defs>
	<g id="Group 41">
		<g id="logos:facebook" clip-path="url(#clipPath_1)" customFrame="url(#clipPath_1)">
			<rect id="logos:facebook" width="105.072693" height="105.072693" x="0.000000" y="0.000000" fill="rgb(255,255,255)" fill-opacity="0" />
			<path id="Vector" d="M105.073 52.5364C105.073 23.5215 81.5512 0 52.5363 0C23.5215 0 0 23.5215 0 52.5364C0 78.7586 19.2119 100.493 44.3275 104.434L44.3275 67.7226L30.9882 67.7226L30.9882 52.5364L44.3275 52.5364L44.3275 40.9619C44.3275 27.795 52.1711 20.522 64.1715 20.522C69.9193 20.522 75.9314 21.5481 75.9314 21.5481L75.9314 34.477L69.3069 34.477C62.7805 34.477 60.7452 38.5268 60.7452 42.6817L60.7452 52.5364L75.3158 52.5364L72.9865 67.7226L60.7452 67.7226L60.7452 104.434C85.8608 100.493 105.073 78.759 105.073 52.5364Z" fill="rgb(24,119,242)" fill-rule="nonzero" />
			<path id="Vector" d="M72.9866 67.7221L75.3158 52.5358L60.7452 52.5358L60.7452 42.6812C60.7452 38.5259 62.7806 34.4765 69.307 34.4765L75.9315 34.4765L75.9315 21.5476C75.9315 21.5476 69.9194 20.5215 64.1711 20.5215C52.1711 20.5215 44.3276 27.7945 44.3276 40.9614L44.3276 52.5358L30.9883 52.5358L30.9883 67.7221L44.3276 67.7221L44.3276 104.434C47.0431 104.859 49.7877 105.073 52.5364 105.072C55.2851 105.073 58.0296 104.859 60.7452 104.434L60.7452 67.7221L72.9866 67.7221Z" fill="rgb(255,255,255)" fill-rule="nonzero" />
		</g>
	</g>
</svg>
