<svg viewBox="0 0 105.073 105.072" xmlns="http://www.w3.org/2000/svg" xmlns:xlink="http://www.w3.org/1999/xlink" width="105.072754" height="105.072266" fill="none" customFrame="#000000">
	<defs>
		<clipPath id="clipPath_0">
			<rect width="79.011345" height="79.011345" x="16.165039" y="13.225586" fill="rgb(255,255,255)" />
		</clipPath>
	</defs>
	<g id="Group 39">
		<g id="Group 38">
			<circle id="Ellipse 8" cx="52.5363464" cy="52.5353699" r="52.5363464" fill="rgb(255,255,255)" />
		</g>
		<g id="material-icon-theme:google" clip-path="url(#clipPath_0)" customFrame="url(#clipPath_0)">
			<rect id="material-icon-theme:google" width="79.011345" height="79.011345" x="16.165039" y="13.225586" fill="rgb(255,255,255)" fill-opacity="0" />
			<g id="Group 38">
				<g id="Group">
					<path id="Vector" d="M48.8254 18.4631C52.4056 18.0631 54.5241 18.0631 58.3709 18.4631C65.1804 19.4709 71.4928 22.6185 76.3954 27.4506C73.0825 30.5821 69.8131 33.7593 66.5881 36.9814C60.4121 31.7469 53.5183 30.5387 45.9069 33.3567C40.3234 35.9246 36.4354 40.0859 34.2428 45.8405C30.6599 43.173 27.1236 40.4434 23.6356 37.653C23.3932 37.5254 23.1163 37.4786 22.8455 37.5196C28.3861 26.8366 37.0445 20.4828 48.8204 18.4581" opacity="0.986999989" fill="rgb(244,67,54)" fill-rule="evenodd" />
					<path id="Vector" d="M22.8357 37.5216C23.1155 37.4788 23.3805 37.5233 23.6308 37.6549C27.1188 40.4454 30.6551 43.175 34.238 45.8425C33.6742 48.0847 33.3188 50.3743 33.1763 52.6819C33.2981 54.914 33.652 57.1049 34.238 59.2547L23.1024 68.1188C18.253 57.9855 18.1642 47.7865 22.8357 37.5216Z" opacity="0.996999979" fill="rgb(255,193,7)" fill-rule="evenodd" />
					<path id="Vector" d="M75.8675 78.8524C72.4002 75.7946 68.7703 72.9263 64.9936 70.26C68.7795 67.5867 71.0775 63.9193 71.8873 59.2576L53.3345 59.2576L53.3345 46.3738C64.0339 46.285 74.7284 46.3755 85.418 46.6455C87.446 57.6577 85.1036 67.5867 78.3909 76.4327C77.5928 77.2812 76.7473 78.0888 75.8675 78.8524Z" opacity="0.999000013" fill="rgb(68,138,255)" fill-rule="evenodd" />
					<path id="Vector" d="M34.238 59.2559C38.2873 69.3199 45.7111 74.0178 56.5093 73.3495C59.5405 72.9986 62.4467 71.9397 64.9931 70.2582C68.7725 72.9314 72.3972 75.7956 75.8671 78.8507C70.3691 83.7911 63.3591 86.7225 55.9809 87.1666C54.3046 87.3006 52.6202 87.3006 50.9439 87.1666C38.3745 85.6852 29.094 79.3346 23.1023 68.115L34.238 59.2559Z" opacity="0.992999971" fill="rgb(67,160,71)" fill-rule="evenodd" />
				</g>
			</g>
		</g>
	</g>
</svg>
