<svg viewBox="0 0 105.092 83.7188" xmlns="http://www.w3.org/2000/svg" xmlns:xlink="http://www.w3.org/1999/xlink" width="105.091675" height="83.718750" fill="none" customFrame="#000000">
	<path id="Vector" d="M104.927 2.67152C104.888 2.01937 104.611 1.40416 104.149 0.942189C103.687 0.480223 103.072 0.203523 102.42 0.164407C79.7092 -1.17153 61.5048 5.69519 53.7252 18.538C48.5462 27.0925 48.6575 37.5439 53.9612 47.4833C50.5603 51.3761 48.1902 56.0597 47.0677 61.1054L38.2506 52.2838C41.8799 45.1143 41.8576 37.6107 38.1081 31.4209C32.4036 22.0025 19.1466 16.9527 2.62556 17.9324C1.97269 17.9716 1.35688 18.2489 0.894816 18.7118C0.432747 19.1747 0.156513 19.791 0.118447 20.4439C-0.852334 36.9606 4.1886 50.2175 13.607 55.922C16.6744 57.7967 20.2007 58.7862 23.7957 58.7809C27.5187 58.7425 31.1802 57.8271 34.4832 56.109L46.3107 67.9009L46.3107 81.0465C46.3107 81.7551 46.5922 82.4347 47.0933 82.9358C47.5944 83.4369 48.274 83.7184 48.9826 83.7184C49.6912 83.7184 50.3708 83.4369 50.8719 82.9358C51.373 82.4347 51.6545 81.7551 51.6545 81.0465L51.6545 67.9142C51.6366 61.7933 53.8102 55.868 57.782 51.2106C62.7739 53.8513 67.8995 55.1783 72.8424 55.1783C77.6772 55.1942 82.4223 53.8735 86.5536 51.362C99.3964 43.5913 106.263 25.3825 104.927 2.67152ZM16.3768 51.3486C9.11376 46.9534 5.07032 36.5153 5.34196 23.1559C18.7013 22.8664 29.1261 26.9143 33.5213 34.1774C36.0507 38.35 36.2645 43.2528 34.2071 48.2448L22.3707 36.4039C21.8694 35.9026 21.1894 35.6209 20.4804 35.6209C19.7713 35.6209 19.0914 35.9026 18.59 36.4039C18.0887 36.9053 17.807 37.5853 17.807 38.2943C17.807 39.0033 18.0887 39.6833 18.59 40.1846L30.4442 52.0344C25.4523 54.0918 20.5494 53.8825 16.3768 51.3486ZM83.7882 46.7975C77.2243 50.7697 69.4759 50.8855 61.6695 47.1983L86.5002 22.3721C86.7484 22.1239 86.9453 21.8292 87.0797 21.5048C87.214 21.1805 87.2832 20.8329 87.2832 20.4818C87.2832 20.1307 87.214 19.7831 87.0797 19.4587C86.9453 19.1344 86.7484 18.8397 86.5002 18.5914C86.2519 18.3432 85.9572 18.1463 85.6329 18.0119C85.3085 17.8776 84.9609 17.8084 84.6098 17.8084C84.2587 17.8084 83.9111 17.8776 83.5868 18.0119C83.2624 18.1463 82.9677 18.3432 82.7195 18.5914L57.8888 43.4221C54.2017 35.6157 54.3263 27.8673 58.2896 21.3078C64.7556 10.6203 80.1367 4.75113 99.7037 5.38792C100.34 24.9371 94.4668 40.3271 83.7882 46.7975Z" fill="rgb(255,255,255)" fill-rule="nonzero" />
</svg>
