<svg viewBox="0 0 105.073 105.072" xmlns="http://www.w3.org/2000/svg" xmlns:xlink="http://www.w3.org/1999/xlink" width="105.072754" height="105.072266" fill="none" customFrame="#000000">
	<defs>
		<clipPath id="clipPath_2">
			<rect width="71.273087" height="71.273087" x="16.899902" y="13.225586" fill="rgb(255,255,255)" />
		</clipPath>
	</defs>
	<g id="Group 40">
		<circle id="Ellipse 10" cx="52.5363464" cy="52.5363464" r="52.5363464" fill="rgb(138,187,135)" />
		<g id="simple-icons:apple" clip-path="url(#clipPath_2)" customFrame="url(#clipPath_2)">
			<rect id="simple-icons:apple" width="71.273087" height="71.273087" x="16.899902" y="13.225586" fill="rgb(255,255,255)" fill-opacity="0" />
			<path id="Vector" d="M52.9882 33.7047C50.1729 33.7047 45.8163 30.5034 41.2281 30.6162C35.1699 30.6964 29.6165 34.1294 26.4954 39.5669C20.2085 50.4806 24.8739 66.6002 31.0064 75.4707C34.0147 79.7887 37.5635 84.6472 42.2675 84.4957C46.7815 84.3027 48.4742 81.5646 53.9533 81.5646C59.3909 81.5646 60.9322 84.4957 65.7134 84.3799C70.5748 84.3027 73.6603 79.9847 76.6301 75.6252C80.063 70.6123 81.4885 65.7509 81.5657 65.4836C81.4499 65.445 72.1161 61.8576 72.0033 51.0597C71.926 42.0318 79.3681 37.7138 79.7156 37.5208C75.4719 31.3141 68.9563 30.6192 66.6785 30.4648C60.7391 30.0015 55.7649 33.7047 52.9882 33.7047ZM63.0199 24.5996C65.5233 21.5942 67.1775 17.3921 66.7172 13.2256C63.1327 13.38 58.8118 15.6162 56.2281 18.6245C53.9118 21.2854 51.9102 25.5677 52.4477 29.654C56.4212 29.9629 60.5105 27.6109 63.0169 24.6026" fill="rgb(48,71,50)" fill-rule="nonzero" />
		</g>
	</g>
</svg>
